ISO-10303-21;
HEADER;
FILE_DESCRIPTION(('FreeCAD Model'),'2;1');
FILE_NAME('Open CASCADE Shape Model','2026-08-04T17:10:47',('Author'),(
    ''),'Open CASCADE STEP processor 7.8','FreeCAD','Unknown');
FILE_SCHEMA(('AUTOMOTIVE_DESIGN { 1 0 10303 214 1 1 1 1 }'));
ENDSEC;
DATA;
#1 = APPLICATION_PROTOCOL_DEFINITION('international standard',
  'automotive_design',2000,#2);
#2 = APPLICATION_CONTEXT(
  'core data for automotive mechanical design processes');
#3 = SHAPE_DEFINITION_REPRESENTATION(#4,#10);
#4 = PRODUCT_DEFINITION_SHAPE('','',#5);
#5 = PRODUCT_DEFINITION('design','',#6,#9);
#6 = PRODUCT_DEFINITION_FORMATION('','',#7);
#7 = PRODUCT('plate','plate','',(#8));
#8 = PRODUCT_CONTEXT('',#2,'mechanical');
#9 = PRODUCT_DEFINITION_CONTEXT('part definition',#2,'design');
#10 = ADVANCED_BREP_SHAPE_REPRESENTATION('',(#11,#15),#1201);
#11 = AXIS2_PLACEMENT_3D('',#12,#13,#14);
#12 = CARTESIAN_POINT('',(0.,0.,0.));
#13 = DIRECTION('',(0.,0.,1.));
#14 = DIRECTION('',(1.,0.,-0.));
#15 = MANIFOLD_SOLID_BREP('',#16);
#16 = CLOSED_SHELL('',(#17,#73,#104,#128,#352,#576,#600,#617,#641,#658,
    #682,#713,#737,#761,#792,#816,#840,#859,#881,#898,#915,#927,#949,
    #966,#983,#995,#1017,#1034,#1051,#1063,#1085,#1102,#1119,#1131,#1148
    ,#1160,#1172,#1189));
#17 = ADVANCED_FACE('',(#18),#68,.F.);
#18 = FACE_BOUND('',#19,.F.);
#19 = EDGE_LOOP('',(#20,#30,#38,#46,#54,#62));
#20 = ORIENTED_EDGE('',*,*,#21,.F.);
#21 = EDGE_CURVE('',#22,#24,#26,.T.);
#22 = VERTEX_POINT('',#23);
#23 = CARTESIAN_POINT('',(41.9,-43.275,13.));
#24 = VERTEX_POINT('',#25);
#25 = CARTESIAN_POINT('',(41.9,-43.275,13.01));
#26 = LINE('',#27,#28);
#27 = CARTESIAN_POINT('',(41.9,-43.275,14.5));
#28 = VECTOR('',#29,1.);
#29 = DIRECTION('',(0.,0.,1.));
#30 = ORIENTED_EDGE('',*,*,#31,.F.);
#31 = EDGE_CURVE('',#32,#22,#34,.T.);
#32 = VERTEX_POINT('',#33);
#33 = CARTESIAN_POINT('',(-41.9,-43.275,13.));
#34 = LINE('',#35,#36);
#35 = CARTESIAN_POINT('',(-49.9,-43.275,13.));
#36 = VECTOR('',#37,1.);
#37 = DIRECTION('',(1.,0.,0.));
#38 = ORIENTED_EDGE('',*,*,#39,.T.);
#39 = EDGE_CURVE('',#32,#40,#42,.T.);
#40 = VERTEX_POINT('',#41);
#41 = CARTESIAN_POINT('',(-41.9,-43.275,13.01));
#42 = LINE('',#43,#44);
#43 = CARTESIAN_POINT('',(-41.9,-43.275,14.5));
#44 = VECTOR('',#45,1.);
#45 = DIRECTION('',(0.,0.,1.));
#46 = ORIENTED_EDGE('',*,*,#47,.F.);
#47 = EDGE_CURVE('',#48,#40,#50,.T.);
#48 = VERTEX_POINT('',#49);
#49 = CARTESIAN_POINT('',(-38.91,-43.275,16.));
#50 = LINE('',#51,#52);
#51 = CARTESIAN_POINT('',(-43.155,-43.275,11.755));
#52 = VECTOR('',#53,1.);
#53 = DIRECTION('',(-0.707106781187,0.,-0.707106781187));
#54 = ORIENTED_EDGE('',*,*,#55,.T.);
#55 = EDGE_CURVE('',#48,#56,#58,.T.);
#56 = VERTEX_POINT('',#57);
#57 = CARTESIAN_POINT('',(38.91,-43.275,16.));
#58 = LINE('',#59,#60);
#59 = CARTESIAN_POINT('',(-49.9,-43.275,16.));
#60 = VECTOR('',#61,1.);
#61 = DIRECTION('',(1.,0.,0.));
#62 = ORIENTED_EDGE('',*,*,#63,.F.);
#63 = EDGE_CURVE('',#24,#56,#64,.T.);
#64 = LINE('',#65,#66);
#65 = CARTESIAN_POINT('',(18.205,-43.275,36.705));
#66 = VECTOR('',#67,1.);
#67 = DIRECTION('',(-0.707106781187,0.,0.707106781187));
#68 = PLANE('',#69);
#69 = AXIS2_PLACEMENT_3D('',#70,#71,#72);
#70 = CARTESIAN_POINT('',(-49.9,-43.275,13.));
#71 = DIRECTION('',(0.,1.,0.));
#72 = DIRECTION('',(1.,0.,0.));
#73 = ADVANCED_FACE('',(#74),#99,.F.);
#74 = FACE_BOUND('',#75,.F.);
#75 = EDGE_LOOP('',(#76,#77,#85,#93));
#76 = ORIENTED_EDGE('',*,*,#21,.T.);
#77 = ORIENTED_EDGE('',*,*,#78,.F.);
#78 = EDGE_CURVE('',#79,#24,#81,.T.);
#79 = VERTEX_POINT('',#80);
#80 = CARTESIAN_POINT('',(41.9,-35.27,13.01));
#81 = LINE('',#82,#83);
#82 = CARTESIAN_POINT('',(41.9,-35.27,13.01));
#83 = VECTOR('',#84,1.);
#84 = DIRECTION('',(0.,-1.,0.));
#85 = ORIENTED_EDGE('',*,*,#86,.T.);
#86 = EDGE_CURVE('',#79,#87,#89,.T.);
#87 = VERTEX_POINT('',#88);
#88 = CARTESIAN_POINT('',(41.9,-35.27,13.));
#89 = LINE('',#90,#91);
#90 = CARTESIAN_POINT('',(41.9,-35.27,16.));
#91 = VECTOR('',#92,1.);
#92 = DIRECTION('',(-0.,-0.,-1.));
#93 = ORIENTED_EDGE('',*,*,#94,.T.);
#94 = EDGE_CURVE('',#87,#22,#95,.T.);
#95 = LINE('',#96,#97);
#96 = CARTESIAN_POINT('',(41.9,-17.635,13.));
#97 = VECTOR('',#98,1.);
#98 = DIRECTION('',(0.,-1.,0.));
#99 = PLANE('',#100);
#100 = AXIS2_PLACEMENT_3D('',#101,#102,#103);
#101 = CARTESIAN_POINT('',(41.9,-35.27,16.));
#102 = DIRECTION('',(-1.,0.,0.));
#103 = DIRECTION('',(0.,-1.,0.));
#104 = ADVANCED_FACE('',(#105),#123,.F.);
#105 = FACE_BOUND('',#106,.F.);
#106 = EDGE_LOOP('',(#107,#115,#116,#117));
#107 = ORIENTED_EDGE('',*,*,#108,.T.);
#108 = EDGE_CURVE('',#109,#79,#111,.T.);
#109 = VERTEX_POINT('',#110);
#110 = CARTESIAN_POINT('',(38.91,-32.28,16.));
#111 = LINE('',#112,#113);
#112 = CARTESIAN_POINT('',(42.236666666667,-35.60666666666,
    12.673333333333));
#113 = VECTOR('',#114,1.);
#114 = DIRECTION('',(0.57735026919,-0.57735026919,-0.57735026919));
#115 = ORIENTED_EDGE('',*,*,#78,.T.);
#116 = ORIENTED_EDGE('',*,*,#63,.T.);
#117 = ORIENTED_EDGE('',*,*,#118,.F.);
#118 = EDGE_CURVE('',#109,#56,#119,.T.);
#119 = LINE('',#120,#121);
#120 = CARTESIAN_POINT('',(38.91,-35.27,16.));
#121 = VECTOR('',#122,1.);
#122 = DIRECTION('',(0.,-1.,0.));
#123 = PLANE('',#124);
#124 = AXIS2_PLACEMENT_3D('',#125,#126,#127);
#125 = CARTESIAN_POINT('',(40.405,-35.27,14.505));
#126 = DIRECTION('',(-0.707106781187,3.013496354936E-17,-0.707106781187)
  );
#127 = DIRECTION('',(-2.130863707656E-17,-1.,-2.130863707656E-17));
#128 = ADVANCED_FACE('',(#129,#211,#245,#279,#313),#347,.F.);
#129 = FACE_BOUND('',#130,.F.);
#130 = EDGE_LOOP('',(#131,#139,#140,#141,#149,#157,#165,#173,#181,#189,
    #197,#205));
#131 = ORIENTED_EDGE('',*,*,#132,.T.);
#132 = EDGE_CURVE('',#133,#32,#135,.T.);
#133 = VERTEX_POINT('',#134);
#134 = CARTESIAN_POINT('',(-41.9,-35.27,13.));
#135 = LINE('',#136,#137);
#136 = CARTESIAN_POINT('',(-41.9,-17.635,13.));
#137 = VECTOR('',#138,1.);
#138 = DIRECTION('',(0.,-1.,0.));
#139 = ORIENTED_EDGE('',*,*,#31,.T.);
#140 = ORIENTED_EDGE('',*,*,#94,.F.);
#141 = ORIENTED_EDGE('',*,*,#142,.F.);
#142 = EDGE_CURVE('',#143,#87,#145,.T.);
#143 = VERTEX_POINT('',#144);
#144 = CARTESIAN_POINT('',(49.9,-35.27,13.));
#145 = LINE('',#146,#147);
#146 = CARTESIAN_POINT('',(24.95,-35.27,13.));
#147 = VECTOR('',#148,1.);
#148 = DIRECTION('',(-1.,0.,0.));
#149 = ORIENTED_EDGE('',*,*,#150,.T.);
#150 = EDGE_CURVE('',#143,#151,#153,.T.);
#151 = VERTEX_POINT('',#152);
#152 = CARTESIAN_POINT('',(49.9,35.27,13.));
#153 = LINE('',#154,#155);
#154 = CARTESIAN_POINT('',(49.9,-43.275,13.));
#155 = VECTOR('',#156,1.);
#156 = DIRECTION('',(0.,1.,0.));
#157 = ORIENTED_EDGE('',*,*,#158,.T.);
#158 = EDGE_CURVE('',#151,#159,#161,.T.);
#159 = VERTEX_POINT('',#160);
#160 = CARTESIAN_POINT('',(41.9,35.27,13.));
#161 = LINE('',#162,#163);
#162 = CARTESIAN_POINT('',(24.95,35.27,13.));
#163 = VECTOR('',#164,1.);
#164 = DIRECTION('',(-1.,0.,0.));
#165 = ORIENTED_EDGE('',*,*,#166,.T.);
#166 = EDGE_CURVE('',#159,#167,#169,.T.);
#167 = VERTEX_POINT('',#168);
#168 = CARTESIAN_POINT('',(41.9,43.275,13.));
#169 = LINE('',#170,#171);
#170 = CARTESIAN_POINT('',(41.9,17.635,13.));
#171 = VECTOR('',#172,1.);
#172 = DIRECTION('',(0.,1.,0.));
#173 = ORIENTED_EDGE('',*,*,#174,.T.);
#174 = EDGE_CURVE('',#167,#175,#177,.T.);
#175 = VERTEX_POINT('',#176);
#176 = CARTESIAN_POINT('',(-41.9,43.275,13.));
#177 = LINE('',#178,#179);
#178 = CARTESIAN_POINT('',(49.9,43.275,13.));
#179 = VECTOR('',#180,1.);
#180 = DIRECTION('',(-1.,0.,0.));
#181 = ORIENTED_EDGE('',*,*,#182,.F.);
#182 = EDGE_CURVE('',#183,#175,#185,.T.);
#183 = VERTEX_POINT('',#184);
#184 = CARTESIAN_POINT('',(-41.9,35.27,13.));
#185 = LINE('',#186,#187);
#186 = CARTESIAN_POINT('',(-41.9,17.635,13.));
#187 = VECTOR('',#188,1.);
#188 = DIRECTION('',(0.,1.,0.));
#189 = ORIENTED_EDGE('',*,*,#190,.F.);
#190 = EDGE_CURVE('',#191,#183,#193,.T.);
#191 = VERTEX_POINT('',#192);
#192 = CARTESIAN_POINT('',(-49.9,35.27,13.));
#193 = LINE('',#194,#195);
#194 = CARTESIAN_POINT('',(-24.95,35.27,13.));
#195 = VECTOR('',#196,1.);
#196 = DIRECTION('',(1.,0.,0.));
#197 = ORIENTED_EDGE('',*,*,#198,.T.);
#198 = EDGE_CURVE('',#191,#199,#201,.T.);
#199 = VERTEX_POINT('',#200);
#200 = CARTESIAN_POINT('',(-49.9,-35.27,13.));
#201 = LINE('',#202,#203);
#202 = CARTESIAN_POINT('',(-49.9,43.275,13.));
#203 = VECTOR('',#204,1.);
#204 = DIRECTION('',(0.,-1.,0.));
#205 = ORIENTED_EDGE('',*,*,#206,.T.);
#206 = EDGE_CURVE('',#199,#133,#207,.T.);
#207 = LINE('',#208,#209);
#208 = CARTESIAN_POINT('',(-24.95,-35.27,13.));
#209 = VECTOR('',#210,1.);
#210 = DIRECTION('',(1.,0.,0.));
#211 = FACE_BOUND('',#212,.F.);
#212 = EDGE_LOOP('',(#213,#223,#231,#239));
#213 = ORIENTED_EDGE('',*,*,#214,.F.);
#214 = EDGE_CURVE('',#215,#217,#219,.T.);
#215 = VERTEX_POINT('',#216);
#216 = CARTESIAN_POINT('',(-38.4,-11.6,13.));
#217 = VERTEX_POINT('',#218);
#218 = CARTESIAN_POINT('',(-38.4,-31.4,13.));
#219 = LINE('',#220,#221);
#220 = CARTESIAN_POINT('',(-38.4,-5.8,13.));
#221 = VECTOR('',#222,1.);
#222 = DIRECTION('',(0.,-1.,0.));
#223 = ORIENTED_EDGE('',*,*,#224,.F.);
#224 = EDGE_CURVE('',#225,#215,#227,.T.);
#225 = VERTEX_POINT('',#226);
#226 = CARTESIAN_POINT('',(38.4,-11.6,13.));
#227 = LINE('',#228,#229);
#228 = CARTESIAN_POINT('',(19.2,-11.6,13.));
#229 = VECTOR('',#230,1.);
#230 = DIRECTION('',(-1.,0.,0.));
#231 = ORIENTED_EDGE('',*,*,#232,.F.);
#232 = EDGE_CURVE('',#233,#225,#235,.T.);
#233 = VERTEX_POINT('',#234);
#234 = CARTESIAN_POINT('',(38.4,-31.4,13.));
#235 = LINE('',#236,#237);
#236 = CARTESIAN_POINT('',(38.4,-15.7,13.));
#237 = VECTOR('',#238,1.);
#238 = DIRECTION('',(0.,1.,0.));
#239 = ORIENTED_EDGE('',*,*,#240,.F.);
#240 = EDGE_CURVE('',#217,#233,#241,.T.);
#241 = LINE('',#242,#243);
#242 = CARTESIAN_POINT('',(-19.2,-31.4,13.));
#243 = VECTOR('',#244,1.);
#244 = DIRECTION('',(1.,0.,0.));
#245 = FACE_BOUND('',#246,.F.);
#246 = EDGE_LOOP('',(#247,#257,#265,#273));
#247 = ORIENTED_EDGE('',*,*,#248,.F.);
#248 = EDGE_CURVE('',#249,#251,#253,.T.);
#249 = VERTEX_POINT('',#250);
#250 = CARTESIAN_POINT('',(-31.55,28.55,13.));
#251 = VERTEX_POINT('',#252);
#252 = CARTESIAN_POINT('',(-31.55,22.97,13.));
#253 = LINE('',#254,#255);
#254 = CARTESIAN_POINT('',(-31.55,14.275,13.));
#255 = VECTOR('',#256,1.);
#256 = DIRECTION('',(0.,-1.,0.));
#257 = ORIENTED_EDGE('',*,*,#258,.F.);
#258 = EDGE_CURVE('',#259,#249,#261,.T.);
#259 = VERTEX_POINT('',#260);
#260 = CARTESIAN_POINT('',(-9.17,28.55,13.));
#261 = LINE('',#262,#263);
#262 = CARTESIAN_POINT('',(-4.585,28.55,13.));
#263 = VECTOR('',#264,1.);
#264 = DIRECTION('',(-1.,0.,0.));
#265 = ORIENTED_EDGE('',*,*,#266,.F.);
#266 = EDGE_CURVE('',#267,#259,#269,.T.);
#267 = VERTEX_POINT('',#268);
#268 = CARTESIAN_POINT('',(-9.17,22.97,13.));
#269 = LINE('',#270,#271);
#270 = CARTESIAN_POINT('',(-9.17,11.485,13.));
#271 = VECTOR('',#272,1.);
#272 = DIRECTION('',(0.,1.,0.));
#273 = ORIENTED_EDGE('',*,*,#274,.F.);
#274 = EDGE_CURVE('',#251,#267,#275,.T.);
#275 = LINE('',#276,#277);
#276 = CARTESIAN_POINT('',(-15.775,22.97,13.));
#277 = VECTOR('',#278,1.);
#278 = DIRECTION('',(1.,0.,0.));
#279 = FACE_BOUND('',#280,.F.);
#280 = EDGE_LOOP('',(#281,#291,#299,#307));
#281 = ORIENTED_EDGE('',*,*,#282,.F.);
#282 = EDGE_CURVE('',#283,#285,#287,.T.);
#283 = VERTEX_POINT('',#284);
#284 = CARTESIAN_POINT('',(-38.4,12.4,13.));
#285 = VERTEX_POINT('',#286);
#286 = CARTESIAN_POINT('',(-38.4,-7.4,13.));
#287 = LINE('',#288,#289);
#288 = CARTESIAN_POINT('',(-38.4,6.2,13.));
#289 = VECTOR('',#290,1.);
#290 = DIRECTION('',(0.,-1.,0.));
#291 = ORIENTED_EDGE('',*,*,#292,.F.);
#292 = EDGE_CURVE('',#293,#283,#295,.T.);
#293 = VERTEX_POINT('',#294);
#294 = CARTESIAN_POINT('',(38.4,12.4,13.));
#295 = LINE('',#296,#297);
#296 = CARTESIAN_POINT('',(19.2,12.4,13.));
#297 = VECTOR('',#298,1.);
#298 = DIRECTION('',(-1.,0.,0.));
#299 = ORIENTED_EDGE('',*,*,#300,.F.);
#300 = EDGE_CURVE('',#301,#293,#303,.T.);
#301 = VERTEX_POINT('',#302);
#302 = CARTESIAN_POINT('',(38.4,-7.4,13.));
#303 = LINE('',#304,#305);
#304 = CARTESIAN_POINT('',(38.4,-3.7,13.));
#305 = VECTOR('',#306,1.);
#306 = DIRECTION('',(0.,1.,0.));
#307 = ORIENTED_EDGE('',*,*,#308,.F.);
#308 = EDGE_CURVE('',#285,#301,#309,.T.);
#309 = LINE('',#310,#311);
#310 = CARTESIAN_POINT('',(-19.2,-7.4,13.));
#311 = VECTOR('',#312,1.);
#312 = DIRECTION('',(1.,0.,0.));
#313 = FACE_BOUND('',#314,.F.);
#314 = EDGE_LOOP('',(#315,#325,#333,#341));
#315 = ORIENTED_EDGE('',*,*,#316,.F.);
#316 = EDGE_CURVE('',#317,#319,#321,.T.);
#317 = VERTEX_POINT('',#318);
#318 = CARTESIAN_POINT('',(3.3,18.35,13.));
#319 = VERTEX_POINT('',#320);
#320 = CARTESIAN_POINT('',(15.3,18.35,13.));
#321 = LINE('',#322,#323);
#322 = CARTESIAN_POINT('',(1.65,18.35,13.));
#323 = VECTOR('',#324,1.);
#324 = DIRECTION('',(1.,0.,0.));
#325 = ORIENTED_EDGE('',*,*,#326,.F.);
#326 = EDGE_CURVE('',#327,#317,#329,.T.);
#327 = VERTEX_POINT('',#328);
#328 = CARTESIAN_POINT('',(3.3,30.35,13.));
#329 = LINE('',#330,#331);
#330 = CARTESIAN_POINT('',(3.3,15.175,13.));
#331 = VECTOR('',#332,1.);
#332 = DIRECTION('',(0.,-1.,0.));
#333 = ORIENTED_EDGE('',*,*,#334,.F.);
#334 = EDGE_CURVE('',#335,#327,#337,.T.);
#335 = VERTEX_POINT('',#336);
#336 = CARTESIAN_POINT('',(15.3,30.35,13.));
#337 = LINE('',#338,#339);
#338 = CARTESIAN_POINT('',(7.65,30.35,13.));
#339 = VECTOR('',#340,1.);
#340 = DIRECTION('',(-1.,0.,0.));
#341 = ORIENTED_EDGE('',*,*,#342,.F.);
#342 = EDGE_CURVE('',#319,#335,#343,.T.);
#343 = LINE('',#344,#345);
#344 = CARTESIAN_POINT('',(15.3,9.175,13.));
#345 = VECTOR('',#346,1.);
#346 = DIRECTION('',(0.,1.,0.));
#347 = PLANE('',#348);
#348 = AXIS2_PLACEMENT_3D('',#349,#350,#351);
#349 = CARTESIAN_POINT('',(0.,0.,13.));
#350 = DIRECTION('',(0.,0.,1.));
#351 = DIRECTION('',(1.,0.,0.));
#352 = ADVANCED_FACE('',(#353,#435,#469,#503,#537),#571,.T.);
#353 = FACE_BOUND('',#354,.T.);
#354 = EDGE_LOOP('',(#355,#365,#373,#379,#380,#381,#389,#397,#405,#413,
    #421,#429));
#355 = ORIENTED_EDGE('',*,*,#356,.T.);
#356 = EDGE_CURVE('',#357,#359,#361,.T.);
#357 = VERTEX_POINT('',#358);
#358 = CARTESIAN_POINT('',(-49.9,32.28,16.));
#359 = VERTEX_POINT('',#360);
#360 = CARTESIAN_POINT('',(-49.9,-32.28,16.));
#361 = LINE('',#362,#363);
#362 = CARTESIAN_POINT('',(-49.9,43.275,16.));
#363 = VECTOR('',#364,1.);
#364 = DIRECTION('',(0.,-1.,0.));
#365 = ORIENTED_EDGE('',*,*,#366,.T.);
#366 = EDGE_CURVE('',#359,#367,#369,.T.);
#367 = VERTEX_POINT('',#368);
#368 = CARTESIAN_POINT('',(-38.91,-32.28,16.));
#369 = LINE('',#370,#371);
#370 = CARTESIAN_POINT('',(-49.9,-32.28,16.));
#371 = VECTOR('',#372,1.);
#372 = DIRECTION('',(1.,0.,0.));
#373 = ORIENTED_EDGE('',*,*,#374,.T.);
#374 = EDGE_CURVE('',#367,#48,#375,.T.);
#375 = LINE('',#376,#377);
#376 = CARTESIAN_POINT('',(-38.91,-35.27,16.));
#377 = VECTOR('',#378,1.);
#378 = DIRECTION('',(0.,-1.,0.));
#379 = ORIENTED_EDGE('',*,*,#55,.T.);
#380 = ORIENTED_EDGE('',*,*,#118,.F.);
#381 = ORIENTED_EDGE('',*,*,#382,.F.);
#382 = EDGE_CURVE('',#383,#109,#385,.T.);
#383 = VERTEX_POINT('',#384);
#384 = CARTESIAN_POINT('',(49.9,-32.28,16.));
#385 = LINE('',#386,#387);
#386 = CARTESIAN_POINT('',(49.9,-32.28,16.));
#387 = VECTOR('',#388,1.);
#388 = DIRECTION('',(-1.,0.,0.));
#389 = ORIENTED_EDGE('',*,*,#390,.T.);
#390 = EDGE_CURVE('',#383,#391,#393,.T.);
#391 = VERTEX_POINT('',#392);
#392 = CARTESIAN_POINT('',(49.9,32.28,16.));
#393 = LINE('',#394,#395);
#394 = CARTESIAN_POINT('',(49.9,-43.275,16.));
#395 = VECTOR('',#396,1.);
#396 = DIRECTION('',(0.,1.,0.));
#397 = ORIENTED_EDGE('',*,*,#398,.T.);
#398 = EDGE_CURVE('',#391,#399,#401,.T.);
#399 = VERTEX_POINT('',#400);
#400 = CARTESIAN_POINT('',(38.91,32.28,16.));
#401 = LINE('',#402,#403);
#402 = CARTESIAN_POINT('',(49.9,32.28,16.));
#403 = VECTOR('',#404,1.);
#404 = DIRECTION('',(-1.,0.,0.));
#405 = ORIENTED_EDGE('',*,*,#406,.T.);
#406 = EDGE_CURVE('',#399,#407,#409,.T.);
#407 = VERTEX_POINT('',#408);
#408 = CARTESIAN_POINT('',(38.91,43.275,16.));
#409 = LINE('',#410,#411);
#410 = CARTESIAN_POINT('',(38.91,35.27,16.));
#411 = VECTOR('',#412,1.);
#412 = DIRECTION('',(0.,1.,0.));
#413 = ORIENTED_EDGE('',*,*,#414,.T.);
#414 = EDGE_CURVE('',#407,#415,#417,.T.);
#415 = VERTEX_POINT('',#416);
#416 = CARTESIAN_POINT('',(-38.91,43.275,16.));
#417 = LINE('',#418,#419);
#418 = CARTESIAN_POINT('',(49.9,43.275,16.));
#419 = VECTOR('',#420,1.);
#420 = DIRECTION('',(-1.,0.,0.));
#421 = ORIENTED_EDGE('',*,*,#422,.F.);
#422 = EDGE_CURVE('',#423,#415,#425,.T.);
#423 = VERTEX_POINT('',#424);
#424 = CARTESIAN_POINT('',(-38.91,32.28,16.));
#425 = LINE('',#426,#427);
#426 = CARTESIAN_POINT('',(-38.91,35.27,16.));
#427 = VECTOR('',#428,1.);
#428 = DIRECTION('',(0.,1.,0.));
#429 = ORIENTED_EDGE('',*,*,#430,.F.);
#430 = EDGE_CURVE('',#357,#423,#431,.T.);
#431 = LINE('',#432,#433);
#432 = CARTESIAN_POINT('',(-49.9,32.28,16.));
#433 = VECTOR('',#434,1.);
#434 = DIRECTION('',(1.,0.,0.));
#435 = FACE_BOUND('',#436,.T.);
#436 = EDGE_LOOP('',(#437,#447,#455,#463));
#437 = ORIENTED_EDGE('',*,*,#438,.F.);
#438 = EDGE_CURVE('',#439,#441,#443,.T.);
#439 = VERTEX_POINT('',#440);
#440 = CARTESIAN_POINT('',(-38.4,-11.6,16.));
#441 = VERTEX_POINT('',#442);
#442 = CARTESIAN_POINT('',(-38.4,-31.4,16.));
#443 = LINE('',#444,#445);
#444 = CARTESIAN_POINT('',(-38.4,-11.6,16.));
#445 = VECTOR('',#446,1.);
#446 = DIRECTION('',(0.,-1.,0.));
#447 = ORIENTED_EDGE('',*,*,#448,.F.);
#448 = EDGE_CURVE('',#449,#439,#451,.T.);
#449 = VERTEX_POINT('',#450);
#450 = CARTESIAN_POINT('',(38.4,-11.6,16.));
#451 = LINE('',#452,#453);
#452 = CARTESIAN_POINT('',(38.4,-11.6,16.));
#453 = VECTOR('',#454,1.);
#454 = DIRECTION('',(-1.,0.,0.));
#455 = ORIENTED_EDGE('',*,*,#456,.F.);
#456 = EDGE_CURVE('',#457,#449,#459,.T.);
#457 = VERTEX_POINT('',#458);
#458 = CARTESIAN_POINT('',(38.4,-31.4,16.));
#459 = LINE('',#460,#461);
#460 = CARTESIAN_POINT('',(38.4,-31.4,16.));
#461 = VECTOR('',#462,1.);
#462 = DIRECTION('',(0.,1.,0.));
#463 = ORIENTED_EDGE('',*,*,#464,.F.);
#464 = EDGE_CURVE('',#441,#457,#465,.T.);
#465 = LINE('',#466,#467);
#466 = CARTESIAN_POINT('',(-38.4,-31.4,16.));
#467 = VECTOR('',#468,1.);
#468 = DIRECTION('',(1.,0.,0.));
#469 = FACE_BOUND('',#470,.T.);
#470 = EDGE_LOOP('',(#471,#481,#489,#497));
#471 = ORIENTED_EDGE('',*,*,#472,.F.);
#472 = EDGE_CURVE('',#473,#475,#477,.T.);
#473 = VERTEX_POINT('',#474);
#474 = CARTESIAN_POINT('',(-31.55,28.55,16.));
#475 = VERTEX_POINT('',#476);
#476 = CARTESIAN_POINT('',(-31.55,22.97,16.));
#477 = LINE('',#478,#479);
#478 = CARTESIAN_POINT('',(-31.55,28.55,16.));
#479 = VECTOR('',#480,1.);
#480 = DIRECTION('',(0.,-1.,0.));
#481 = ORIENTED_EDGE('',*,*,#482,.F.);
#482 = EDGE_CURVE('',#483,#473,#485,.T.);
#483 = VERTEX_POINT('',#484);
#484 = CARTESIAN_POINT('',(-9.17,28.55,16.));
#485 = LINE('',#486,#487);
#486 = CARTESIAN_POINT('',(-9.17,28.55,16.));
#487 = VECTOR('',#488,1.);
#488 = DIRECTION('',(-1.,0.,0.));
#489 = ORIENTED_EDGE('',*,*,#490,.F.);
#490 = EDGE_CURVE('',#491,#483,#493,.T.);
#491 = VERTEX_POINT('',#492);
#492 = CARTESIAN_POINT('',(-9.17,22.97,16.));
#493 = LINE('',#494,#495);
#494 = CARTESIAN_POINT('',(-9.17,22.97,16.));
#495 = VECTOR('',#496,1.);
#496 = DIRECTION('',(0.,1.,0.));
#497 = ORIENTED_EDGE('',*,*,#498,.F.);
#498 = EDGE_CURVE('',#475,#491,#499,.T.);
#499 = LINE('',#500,#501);
#500 = CARTESIAN_POINT('',(-31.55,22.97,16.));
#501 = VECTOR('',#502,1.);
#502 = DIRECTION('',(1.,0.,0.));
#503 = FACE_BOUND('',#504,.T.);
#504 = EDGE_LOOP('',(#505,#515,#523,#531));
#505 = ORIENTED_EDGE('',*,*,#506,.F.);
#506 = EDGE_CURVE('',#507,#509,#511,.T.);
#507 = VERTEX_POINT('',#508);
#508 = CARTESIAN_POINT('',(-38.4,12.4,16.));
#509 = VERTEX_POINT('',#510);
#510 = CARTESIAN_POINT('',(-38.4,-7.4,16.));
#511 = LINE('',#512,#513);
#512 = CARTESIAN_POINT('',(-38.4,12.4,16.));
#513 = VECTOR('',#514,1.);
#514 = DIRECTION('',(0.,-1.,0.));
#515 = ORIENTED_EDGE('',*,*,#516,.F.);
#516 = EDGE_CURVE('',#517,#507,#519,.T.);
#517 = VERTEX_POINT('',#518);
#518 = CARTESIAN_POINT('',(38.4,12.4,16.));
#519 = LINE('',#520,#521);
#520 = CARTESIAN_POINT('',(38.4,12.4,16.));
#521 = VECTOR('',#522,1.);
#522 = DIRECTION('',(-1.,0.,0.));
#523 = ORIENTED_EDGE('',*,*,#524,.F.);
#524 = EDGE_CURVE('',#525,#517,#527,.T.);
#525 = VERTEX_POINT('',#526);
#526 = CARTESIAN_POINT('',(38.4,-7.4,16.));
#527 = LINE('',#528,#529);
#528 = CARTESIAN_POINT('',(38.4,-7.4,16.));
#529 = VECTOR('',#530,1.);
#530 = DIRECTION('',(0.,1.,0.));
#531 = ORIENTED_EDGE('',*,*,#532,.F.);
#532 = EDGE_CURVE('',#509,#525,#533,.T.);
#533 = LINE('',#534,#535);
#534 = CARTESIAN_POINT('',(-38.4,-7.4,16.));
#535 = VECTOR('',#536,1.);
#536 = DIRECTION('',(1.,0.,0.));
#537 = FACE_BOUND('',#538,.T.);
#538 = EDGE_LOOP('',(#539,#549,#557,#565));
#539 = ORIENTED_EDGE('',*,*,#540,.F.);
#540 = EDGE_CURVE('',#541,#543,#545,.T.);
#541 = VERTEX_POINT('',#542);
#542 = CARTESIAN_POINT('',(3.3,18.35,16.));
#543 = VERTEX_POINT('',#544);
#544 = CARTESIAN_POINT('',(15.3,18.35,16.));
#545 = LINE('',#546,#547);
#546 = CARTESIAN_POINT('',(3.3,18.35,16.));
#547 = VECTOR('',#548,1.);
#548 = DIRECTION('',(1.,0.,0.));
#549 = ORIENTED_EDGE('',*,*,#550,.F.);
#550 = EDGE_CURVE('',#551,#541,#553,.T.);
#551 = VERTEX_POINT('',#552);
#552 = CARTESIAN_POINT('',(3.3,30.35,16.));
#553 = LINE('',#554,#555);
#554 = CARTESIAN_POINT('',(3.3,30.35,16.));
#555 = VECTOR('',#556,1.);
#556 = DIRECTION('',(0.,-1.,0.));
#557 = ORIENTED_EDGE('',*,*,#558,.F.);
#558 = EDGE_CURVE('',#559,#551,#561,.T.);
#559 = VERTEX_POINT('',#560);
#560 = CARTESIAN_POINT('',(15.3,30.35,16.));
#561 = LINE('',#562,#563);
#562 = CARTESIAN_POINT('',(15.3,30.35,16.));
#563 = VECTOR('',#564,1.);
#564 = DIRECTION('',(-1.,0.,0.));
#565 = ORIENTED_EDGE('',*,*,#566,.F.);
#566 = EDGE_CURVE('',#543,#559,#567,.T.);
#567 = LINE('',#568,#569);
#568 = CARTESIAN_POINT('',(15.3,18.35,16.));
#569 = VECTOR('',#570,1.);
#570 = DIRECTION('',(0.,1.,0.));
#571 = PLANE('',#572);
#572 = AXIS2_PLACEMENT_3D('',#573,#574,#575);
#573 = CARTESIAN_POINT('',(0.,0.,16.));
#574 = DIRECTION('',(0.,0.,1.));
#575 = DIRECTION('',(1.,0.,0.));
#576 = ADVANCED_FACE('',(#577),#595,.T.);
#577 = FACE_BOUND('',#578,.T.);
#578 = EDGE_LOOP('',(#579,#580,#588,#594));
#579 = ORIENTED_EDGE('',*,*,#39,.T.);
#580 = ORIENTED_EDGE('',*,*,#581,.F.);
#581 = EDGE_CURVE('',#582,#40,#584,.T.);
#582 = VERTEX_POINT('',#583);
#583 = CARTESIAN_POINT('',(-41.9,-35.27,13.01));
#584 = LINE('',#585,#586);
#585 = CARTESIAN_POINT('',(-41.9,-35.27,13.01));
#586 = VECTOR('',#587,1.);
#587 = DIRECTION('',(0.,-1.,0.));
#588 = ORIENTED_EDGE('',*,*,#589,.T.);
#589 = EDGE_CURVE('',#582,#133,#590,.T.);
#590 = LINE('',#591,#592);
#591 = CARTESIAN_POINT('',(-41.9,-35.27,16.));
#592 = VECTOR('',#593,1.);
#593 = DIRECTION('',(-0.,-0.,-1.));
#594 = ORIENTED_EDGE('',*,*,#132,.T.);
#595 = PLANE('',#596);
#596 = AXIS2_PLACEMENT_3D('',#597,#598,#599);
#597 = CARTESIAN_POINT('',(-41.9,-35.27,16.));
#598 = DIRECTION('',(-1.,0.,0.));
#599 = DIRECTION('',(0.,-1.,0.));
#600 = ADVANCED_FACE('',(#601),#612,.T.);
#601 = FACE_BOUND('',#602,.F.);
#602 = EDGE_LOOP('',(#603,#609,#610,#611));
#603 = ORIENTED_EDGE('',*,*,#604,.F.);
#604 = EDGE_CURVE('',#367,#582,#605,.T.);
#605 = LINE('',#606,#607);
#606 = CARTESIAN_POINT('',(-42.23666666666,-35.60666666666,
    12.673333333333));
#607 = VECTOR('',#608,1.);
#608 = DIRECTION('',(-0.57735026919,-0.57735026919,-0.57735026919));
#609 = ORIENTED_EDGE('',*,*,#374,.T.);
#610 = ORIENTED_EDGE('',*,*,#47,.T.);
#611 = ORIENTED_EDGE('',*,*,#581,.F.);
#612 = PLANE('',#613);
#613 = AXIS2_PLACEMENT_3D('',#614,#615,#616);
#614 = CARTESIAN_POINT('',(-40.405,-35.27,14.505));
#615 = DIRECTION('',(-0.707106781187,-3.013496354936E-17,0.707106781187)
  );
#616 = DIRECTION('',(-2.130863707656E-17,1.,2.130863707656E-17));
#617 = ADVANCED_FACE('',(#618),#636,.F.);
#618 = FACE_BOUND('',#619,.F.);
#619 = EDGE_LOOP('',(#620,#621,#629,#635));
#620 = ORIENTED_EDGE('',*,*,#86,.F.);
#621 = ORIENTED_EDGE('',*,*,#622,.F.);
#622 = EDGE_CURVE('',#623,#79,#625,.T.);
#623 = VERTEX_POINT('',#624);
#624 = CARTESIAN_POINT('',(49.9,-35.27,13.01));
#625 = LINE('',#626,#627);
#626 = CARTESIAN_POINT('',(49.9,-35.27,13.01));
#627 = VECTOR('',#628,1.);
#628 = DIRECTION('',(-1.,0.,0.));
#629 = ORIENTED_EDGE('',*,*,#630,.T.);
#630 = EDGE_CURVE('',#623,#143,#631,.T.);
#631 = LINE('',#632,#633);
#632 = CARTESIAN_POINT('',(49.9,-35.27,16.));
#633 = VECTOR('',#634,1.);
#634 = DIRECTION('',(-0.,-0.,-1.));
#635 = ORIENTED_EDGE('',*,*,#142,.T.);
#636 = PLANE('',#637);
#637 = AXIS2_PLACEMENT_3D('',#638,#639,#640);
#638 = CARTESIAN_POINT('',(49.9,-35.27,16.));
#639 = DIRECTION('',(0.,1.,0.));
#640 = DIRECTION('',(-1.,0.,0.));
#641 = ADVANCED_FACE('',(#642),#653,.F.);
#642 = FACE_BOUND('',#643,.T.);
#643 = EDGE_LOOP('',(#644,#650,#651,#652));
#644 = ORIENTED_EDGE('',*,*,#645,.F.);
#645 = EDGE_CURVE('',#383,#623,#646,.T.);
#646 = LINE('',#647,#648);
#647 = CARTESIAN_POINT('',(49.9,-36.52625,11.75375));
#648 = VECTOR('',#649,1.);
#649 = DIRECTION('',(-0.,-0.707106781187,-0.707106781187));
#650 = ORIENTED_EDGE('',*,*,#382,.T.);
#651 = ORIENTED_EDGE('',*,*,#108,.T.);
#652 = ORIENTED_EDGE('',*,*,#622,.F.);
#653 = PLANE('',#654);
#654 = AXIS2_PLACEMENT_3D('',#655,#656,#657);
#655 = CARTESIAN_POINT('',(49.9,-33.775,14.505));
#656 = DIRECTION('',(3.013496354936E-17,0.707106781187,-0.707106781187)
  );
#657 = DIRECTION('',(1.,-2.130863707656E-17,2.130863707656E-17));
#658 = ADVANCED_FACE('',(#659),#677,.T.);
#659 = FACE_BOUND('',#660,.T.);
#660 = EDGE_LOOP('',(#661,#662,#670,#676));
#661 = ORIENTED_EDGE('',*,*,#589,.F.);
#662 = ORIENTED_EDGE('',*,*,#663,.F.);
#663 = EDGE_CURVE('',#664,#582,#666,.T.);
#664 = VERTEX_POINT('',#665);
#665 = CARTESIAN_POINT('',(-49.9,-35.27,13.01));
#666 = LINE('',#667,#668);
#667 = CARTESIAN_POINT('',(-49.9,-35.27,13.01));
#668 = VECTOR('',#669,1.);
#669 = DIRECTION('',(1.,0.,0.));
#670 = ORIENTED_EDGE('',*,*,#671,.T.);
#671 = EDGE_CURVE('',#664,#199,#672,.T.);
#672 = LINE('',#673,#674);
#673 = CARTESIAN_POINT('',(-49.9,-35.27,16.));
#674 = VECTOR('',#675,1.);
#675 = DIRECTION('',(-0.,-0.,-1.));
#676 = ORIENTED_EDGE('',*,*,#206,.T.);
#677 = PLANE('',#678);
#678 = AXIS2_PLACEMENT_3D('',#679,#680,#681);
#679 = CARTESIAN_POINT('',(-49.9,-35.27,16.));
#680 = DIRECTION('',(0.,-1.,0.));
#681 = DIRECTION('',(1.,0.,0.));
#682 = ADVANCED_FACE('',(#683),#708,.F.);
#683 = FACE_BOUND('',#684,.F.);
#684 = EDGE_LOOP('',(#685,#686,#687,#695,#701,#702));
#685 = ORIENTED_EDGE('',*,*,#671,.T.);
#686 = ORIENTED_EDGE('',*,*,#198,.F.);
#687 = ORIENTED_EDGE('',*,*,#688,.F.);
#688 = EDGE_CURVE('',#689,#191,#691,.T.);
#689 = VERTEX_POINT('',#690);
#690 = CARTESIAN_POINT('',(-49.9,35.27,13.01));
#691 = LINE('',#692,#693);
#692 = CARTESIAN_POINT('',(-49.9,35.27,16.));
#693 = VECTOR('',#694,1.);
#694 = DIRECTION('',(-0.,-0.,-1.));
#695 = ORIENTED_EDGE('',*,*,#696,.F.);
#696 = EDGE_CURVE('',#357,#689,#697,.T.);
#697 = LINE('',#698,#699);
#698 = CARTESIAN_POINT('',(-49.9,36.52625,11.75375));
#699 = VECTOR('',#700,1.);
#700 = DIRECTION('',(0.,0.707106781187,-0.707106781187));
#701 = ORIENTED_EDGE('',*,*,#356,.T.);
#702 = ORIENTED_EDGE('',*,*,#703,.T.);
#703 = EDGE_CURVE('',#359,#664,#704,.T.);
#704 = LINE('',#705,#706);
#705 = CARTESIAN_POINT('',(-49.9,-14.88875,33.39125));
#706 = VECTOR('',#707,1.);
#707 = DIRECTION('',(0.,-0.707106781187,-0.707106781187));
#708 = PLANE('',#709);
#709 = AXIS2_PLACEMENT_3D('',#710,#711,#712);
#710 = CARTESIAN_POINT('',(-49.9,43.275,13.));
#711 = DIRECTION('',(1.,0.,0.));
#712 = DIRECTION('',(0.,-1.,0.));
#713 = ADVANCED_FACE('',(#714),#732,.F.);
#714 = FACE_BOUND('',#715,.F.);
#715 = EDGE_LOOP('',(#716,#724,#730,#731));
#716 = ORIENTED_EDGE('',*,*,#717,.F.);
#717 = EDGE_CURVE('',#718,#183,#720,.T.);
#718 = VERTEX_POINT('',#719);
#719 = CARTESIAN_POINT('',(-41.9,35.27,13.01));
#720 = LINE('',#721,#722);
#721 = CARTESIAN_POINT('',(-41.9,35.27,16.));
#722 = VECTOR('',#723,1.);
#723 = DIRECTION('',(-0.,-0.,-1.));
#724 = ORIENTED_EDGE('',*,*,#725,.F.);
#725 = EDGE_CURVE('',#689,#718,#726,.T.);
#726 = LINE('',#727,#728);
#727 = CARTESIAN_POINT('',(-49.9,35.27,13.01));
#728 = VECTOR('',#729,1.);
#729 = DIRECTION('',(1.,0.,0.));
#730 = ORIENTED_EDGE('',*,*,#688,.T.);
#731 = ORIENTED_EDGE('',*,*,#190,.T.);
#732 = PLANE('',#733);
#733 = AXIS2_PLACEMENT_3D('',#734,#735,#736);
#734 = CARTESIAN_POINT('',(-49.9,35.27,16.));
#735 = DIRECTION('',(0.,-1.,0.));
#736 = DIRECTION('',(1.,0.,0.));
#737 = ADVANCED_FACE('',(#738),#756,.F.);
#738 = FACE_BOUND('',#739,.F.);
#739 = EDGE_LOOP('',(#740,#748,#754,#755));
#740 = ORIENTED_EDGE('',*,*,#741,.T.);
#741 = EDGE_CURVE('',#175,#742,#744,.T.);
#742 = VERTEX_POINT('',#743);
#743 = CARTESIAN_POINT('',(-41.9,43.275,13.01));
#744 = LINE('',#745,#746);
#745 = CARTESIAN_POINT('',(-41.9,43.275,14.5));
#746 = VECTOR('',#747,1.);
#747 = DIRECTION('',(0.,0.,1.));
#748 = ORIENTED_EDGE('',*,*,#749,.F.);
#749 = EDGE_CURVE('',#718,#742,#750,.T.);
#750 = LINE('',#751,#752);
#751 = CARTESIAN_POINT('',(-41.9,35.27,13.01));
#752 = VECTOR('',#753,1.);
#753 = DIRECTION('',(0.,1.,0.));
#754 = ORIENTED_EDGE('',*,*,#717,.T.);
#755 = ORIENTED_EDGE('',*,*,#182,.T.);
#756 = PLANE('',#757);
#757 = AXIS2_PLACEMENT_3D('',#758,#759,#760);
#758 = CARTESIAN_POINT('',(-41.9,35.27,16.));
#759 = DIRECTION('',(1.,0.,0.));
#760 = DIRECTION('',(0.,1.,0.));
#761 = ADVANCED_FACE('',(#762),#787,.F.);
#762 = FACE_BOUND('',#763,.F.);
#763 = EDGE_LOOP('',(#764,#765,#766,#774,#780,#781));
#764 = ORIENTED_EDGE('',*,*,#741,.F.);
#765 = ORIENTED_EDGE('',*,*,#174,.F.);
#766 = ORIENTED_EDGE('',*,*,#767,.T.);
#767 = EDGE_CURVE('',#167,#768,#770,.T.);
#768 = VERTEX_POINT('',#769);
#769 = CARTESIAN_POINT('',(41.9,43.275,13.01));
#770 = LINE('',#771,#772);
#771 = CARTESIAN_POINT('',(41.9,43.275,14.5));
#772 = VECTOR('',#773,1.);
#773 = DIRECTION('',(0.,0.,1.));
#774 = ORIENTED_EDGE('',*,*,#775,.F.);
#775 = EDGE_CURVE('',#407,#768,#776,.T.);
#776 = LINE('',#777,#778);
#777 = CARTESIAN_POINT('',(43.155,43.275,11.755));
#778 = VECTOR('',#779,1.);
#779 = DIRECTION('',(0.707106781187,0.,-0.707106781187));
#780 = ORIENTED_EDGE('',*,*,#414,.T.);
#781 = ORIENTED_EDGE('',*,*,#782,.T.);
#782 = EDGE_CURVE('',#415,#742,#783,.T.);
#783 = LINE('',#784,#785);
#784 = CARTESIAN_POINT('',(-18.205,43.275,36.705));
#785 = VECTOR('',#786,1.);
#786 = DIRECTION('',(-0.707106781187,-0.,-0.707106781187));
#787 = PLANE('',#788);
#788 = AXIS2_PLACEMENT_3D('',#789,#790,#791);
#789 = CARTESIAN_POINT('',(49.9,43.275,13.));
#790 = DIRECTION('',(0.,-1.,0.));
#791 = DIRECTION('',(-1.,0.,0.));
#792 = ADVANCED_FACE('',(#793),#811,.T.);
#793 = FACE_BOUND('',#794,.T.);
#794 = EDGE_LOOP('',(#795,#796,#804,#810));
#795 = ORIENTED_EDGE('',*,*,#767,.T.);
#796 = ORIENTED_EDGE('',*,*,#797,.F.);
#797 = EDGE_CURVE('',#798,#768,#800,.T.);
#798 = VERTEX_POINT('',#799);
#799 = CARTESIAN_POINT('',(41.9,35.27,13.01));
#800 = LINE('',#801,#802);
#801 = CARTESIAN_POINT('',(41.9,35.27,13.01));
#802 = VECTOR('',#803,1.);
#803 = DIRECTION('',(0.,1.,0.));
#804 = ORIENTED_EDGE('',*,*,#805,.T.);
#805 = EDGE_CURVE('',#798,#159,#806,.T.);
#806 = LINE('',#807,#808);
#807 = CARTESIAN_POINT('',(41.9,35.27,16.));
#808 = VECTOR('',#809,1.);
#809 = DIRECTION('',(-0.,-0.,-1.));
#810 = ORIENTED_EDGE('',*,*,#166,.T.);
#811 = PLANE('',#812);
#812 = AXIS2_PLACEMENT_3D('',#813,#814,#815);
#813 = CARTESIAN_POINT('',(41.9,35.27,16.));
#814 = DIRECTION('',(1.,0.,0.));
#815 = DIRECTION('',(0.,1.,0.));
#816 = ADVANCED_FACE('',(#817),#835,.T.);
#817 = FACE_BOUND('',#818,.T.);
#818 = EDGE_LOOP('',(#819,#820,#828,#834));
#819 = ORIENTED_EDGE('',*,*,#805,.F.);
#820 = ORIENTED_EDGE('',*,*,#821,.F.);
#821 = EDGE_CURVE('',#822,#798,#824,.T.);
#822 = VERTEX_POINT('',#823);
#823 = CARTESIAN_POINT('',(49.9,35.27,13.01));
#824 = LINE('',#825,#826);
#825 = CARTESIAN_POINT('',(49.9,35.27,13.01));
#826 = VECTOR('',#827,1.);
#827 = DIRECTION('',(-1.,0.,0.));
#828 = ORIENTED_EDGE('',*,*,#829,.T.);
#829 = EDGE_CURVE('',#822,#151,#830,.T.);
#830 = LINE('',#831,#832);
#831 = CARTESIAN_POINT('',(49.9,35.27,16.));
#832 = VECTOR('',#833,1.);
#833 = DIRECTION('',(-0.,-0.,-1.));
#834 = ORIENTED_EDGE('',*,*,#158,.T.);
#835 = PLANE('',#836);
#836 = AXIS2_PLACEMENT_3D('',#837,#838,#839);
#837 = CARTESIAN_POINT('',(49.9,35.27,16.));
#838 = DIRECTION('',(0.,1.,0.));
#839 = DIRECTION('',(-1.,0.,0.));
#840 = ADVANCED_FACE('',(#841),#854,.F.);
#841 = FACE_BOUND('',#842,.F.);
#842 = EDGE_LOOP('',(#843,#844,#845,#846,#847,#848));
#843 = ORIENTED_EDGE('',*,*,#829,.T.);
#844 = ORIENTED_EDGE('',*,*,#150,.F.);
#845 = ORIENTED_EDGE('',*,*,#630,.F.);
#846 = ORIENTED_EDGE('',*,*,#645,.F.);
#847 = ORIENTED_EDGE('',*,*,#390,.T.);
#848 = ORIENTED_EDGE('',*,*,#849,.T.);
#849 = EDGE_CURVE('',#391,#822,#850,.T.);
#850 = LINE('',#851,#852);
#851 = CARTESIAN_POINT('',(49.9,14.88875,33.39125));
#852 = VECTOR('',#853,1.);
#853 = DIRECTION('',(0.,0.707106781187,-0.707106781187));
#854 = PLANE('',#855);
#855 = AXIS2_PLACEMENT_3D('',#856,#857,#858);
#856 = CARTESIAN_POINT('',(49.9,-43.275,13.));
#857 = DIRECTION('',(-1.,0.,0.));
#858 = DIRECTION('',(0.,1.,0.));
#859 = ADVANCED_FACE('',(#860),#876,.F.);
#860 = FACE_BOUND('',#861,.F.);
#861 = EDGE_LOOP('',(#862,#863,#869,#870));
#862 = ORIENTED_EDGE('',*,*,#438,.F.);
#863 = ORIENTED_EDGE('',*,*,#864,.T.);
#864 = EDGE_CURVE('',#439,#215,#865,.T.);
#865 = LINE('',#866,#867);
#866 = CARTESIAN_POINT('',(-38.4,-11.6,16.));
#867 = VECTOR('',#868,1.);
#868 = DIRECTION('',(-0.,-0.,-1.));
#869 = ORIENTED_EDGE('',*,*,#214,.T.);
#870 = ORIENTED_EDGE('',*,*,#871,.F.);
#871 = EDGE_CURVE('',#441,#217,#872,.T.);
#872 = LINE('',#873,#874);
#873 = CARTESIAN_POINT('',(-38.4,-31.4,16.));
#874 = VECTOR('',#875,1.);
#875 = DIRECTION('',(-0.,-0.,-1.));
#876 = PLANE('',#877);
#877 = AXIS2_PLACEMENT_3D('',#878,#879,#880);
#878 = CARTESIAN_POINT('',(-38.4,-11.6,16.));
#879 = DIRECTION('',(-1.,0.,0.));
#880 = DIRECTION('',(0.,-1.,0.));
#881 = ADVANCED_FACE('',(#882),#893,.F.);
#882 = FACE_BOUND('',#883,.F.);
#883 = EDGE_LOOP('',(#884,#885,#891,#892));
#884 = ORIENTED_EDGE('',*,*,#448,.F.);
#885 = ORIENTED_EDGE('',*,*,#886,.T.);
#886 = EDGE_CURVE('',#449,#225,#887,.T.);
#887 = LINE('',#888,#889);
#888 = CARTESIAN_POINT('',(38.4,-11.6,16.));
#889 = VECTOR('',#890,1.);
#890 = DIRECTION('',(-0.,-0.,-1.));
#891 = ORIENTED_EDGE('',*,*,#224,.T.);
#892 = ORIENTED_EDGE('',*,*,#864,.F.);
#893 = PLANE('',#894);
#894 = AXIS2_PLACEMENT_3D('',#895,#896,#897);
#895 = CARTESIAN_POINT('',(38.4,-11.6,16.));
#896 = DIRECTION('',(0.,1.,0.));
#897 = DIRECTION('',(-1.,0.,0.));
#898 = ADVANCED_FACE('',(#899),#910,.F.);
#899 = FACE_BOUND('',#900,.F.);
#900 = EDGE_LOOP('',(#901,#902,#903,#904));
#901 = ORIENTED_EDGE('',*,*,#464,.F.);
#902 = ORIENTED_EDGE('',*,*,#871,.T.);
#903 = ORIENTED_EDGE('',*,*,#240,.T.);
#904 = ORIENTED_EDGE('',*,*,#905,.F.);
#905 = EDGE_CURVE('',#457,#233,#906,.T.);
#906 = LINE('',#907,#908);
#907 = CARTESIAN_POINT('',(38.4,-31.4,16.));
#908 = VECTOR('',#909,1.);
#909 = DIRECTION('',(-0.,-0.,-1.));
#910 = PLANE('',#911);
#911 = AXIS2_PLACEMENT_3D('',#912,#913,#914);
#912 = CARTESIAN_POINT('',(-38.4,-31.4,16.));
#913 = DIRECTION('',(0.,-1.,0.));
#914 = DIRECTION('',(1.,0.,0.));
#915 = ADVANCED_FACE('',(#916),#922,.F.);
#916 = FACE_BOUND('',#917,.F.);
#917 = EDGE_LOOP('',(#918,#919,#920,#921));
#918 = ORIENTED_EDGE('',*,*,#456,.F.);
#919 = ORIENTED_EDGE('',*,*,#905,.T.);
#920 = ORIENTED_EDGE('',*,*,#232,.T.);
#921 = ORIENTED_EDGE('',*,*,#886,.F.);
#922 = PLANE('',#923);
#923 = AXIS2_PLACEMENT_3D('',#924,#925,#926);
#924 = CARTESIAN_POINT('',(38.4,-31.4,16.));
#925 = DIRECTION('',(1.,0.,0.));
#926 = DIRECTION('',(0.,1.,0.));
#927 = ADVANCED_FACE('',(#928),#944,.F.);
#928 = FACE_BOUND('',#929,.F.);
#929 = EDGE_LOOP('',(#930,#931,#937,#938));
#930 = ORIENTED_EDGE('',*,*,#472,.F.);
#931 = ORIENTED_EDGE('',*,*,#932,.T.);
#932 = EDGE_CURVE('',#473,#249,#933,.T.);
#933 = LINE('',#934,#935);
#934 = CARTESIAN_POINT('',(-31.55,28.55,16.));
#935 = VECTOR('',#936,1.);
#936 = DIRECTION('',(-0.,-0.,-1.));
#937 = ORIENTED_EDGE('',*,*,#248,.T.);
#938 = ORIENTED_EDGE('',*,*,#939,.F.);
#939 = EDGE_CURVE('',#475,#251,#940,.T.);
#940 = LINE('',#941,#942);
#941 = CARTESIAN_POINT('',(-31.55,22.97,16.));
#942 = VECTOR('',#943,1.);
#943 = DIRECTION('',(-0.,-0.,-1.));
#944 = PLANE('',#945);
#945 = AXIS2_PLACEMENT_3D('',#946,#947,#948);
#946 = CARTESIAN_POINT('',(-31.55,28.55,16.));
#947 = DIRECTION('',(-1.,0.,0.));
#948 = DIRECTION('',(0.,-1.,0.));
#949 = ADVANCED_FACE('',(#950),#961,.F.);
#950 = FACE_BOUND('',#951,.F.);
#951 = EDGE_LOOP('',(#952,#953,#954,#955));
#952 = ORIENTED_EDGE('',*,*,#498,.F.);
#953 = ORIENTED_EDGE('',*,*,#939,.T.);
#954 = ORIENTED_EDGE('',*,*,#274,.T.);
#955 = ORIENTED_EDGE('',*,*,#956,.F.);
#956 = EDGE_CURVE('',#491,#267,#957,.T.);
#957 = LINE('',#958,#959);
#958 = CARTESIAN_POINT('',(-9.17,22.97,16.));
#959 = VECTOR('',#960,1.);
#960 = DIRECTION('',(-0.,-0.,-1.));
#961 = PLANE('',#962);
#962 = AXIS2_PLACEMENT_3D('',#963,#964,#965);
#963 = CARTESIAN_POINT('',(-31.55,22.97,16.));
#964 = DIRECTION('',(0.,-1.,0.));
#965 = DIRECTION('',(1.,0.,0.));
#966 = ADVANCED_FACE('',(#967),#978,.F.);
#967 = FACE_BOUND('',#968,.F.);
#968 = EDGE_LOOP('',(#969,#970,#971,#972));
#969 = ORIENTED_EDGE('',*,*,#490,.F.);
#970 = ORIENTED_EDGE('',*,*,#956,.T.);
#971 = ORIENTED_EDGE('',*,*,#266,.T.);
#972 = ORIENTED_EDGE('',*,*,#973,.F.);
#973 = EDGE_CURVE('',#483,#259,#974,.T.);
#974 = LINE('',#975,#976);
#975 = CARTESIAN_POINT('',(-9.17,28.55,16.));
#976 = VECTOR('',#977,1.);
#977 = DIRECTION('',(-0.,-0.,-1.));
#978 = PLANE('',#979);
#979 = AXIS2_PLACEMENT_3D('',#980,#981,#982);
#980 = CARTESIAN_POINT('',(-9.17,22.97,16.));
#981 = DIRECTION('',(1.,0.,0.));
#982 = DIRECTION('',(0.,1.,0.));
#983 = ADVANCED_FACE('',(#984),#990,.F.);
#984 = FACE_BOUND('',#985,.F.);
#985 = EDGE_LOOP('',(#986,#987,#988,#989));
#986 = ORIENTED_EDGE('',*,*,#482,.F.);
#987 = ORIENTED_EDGE('',*,*,#973,.T.);
#988 = ORIENTED_EDGE('',*,*,#258,.T.);
#989 = ORIENTED_EDGE('',*,*,#932,.F.);
#990 = PLANE('',#991);
#991 = AXIS2_PLACEMENT_3D('',#992,#993,#994);
#992 = CARTESIAN_POINT('',(-9.17,28.55,16.));
#993 = DIRECTION('',(0.,1.,0.));
#994 = DIRECTION('',(-1.,0.,0.));
#995 = ADVANCED_FACE('',(#996),#1012,.F.);
#996 = FACE_BOUND('',#997,.F.);
#997 = EDGE_LOOP('',(#998,#999,#1005,#1006));
#998 = ORIENTED_EDGE('',*,*,#506,.F.);
#999 = ORIENTED_EDGE('',*,*,#1000,.T.);
#1000 = EDGE_CURVE('',#507,#283,#1001,.T.);
#1001 = LINE('',#1002,#1003);
#1002 = CARTESIAN_POINT('',(-38.4,12.4,16.));
#1003 = VECTOR('',#1004,1.);
#1004 = DIRECTION('',(-0.,-0.,-1.));
#1005 = ORIENTED_EDGE('',*,*,#282,.T.);
#1006 = ORIENTED_EDGE('',*,*,#1007,.F.);
#1007 = EDGE_CURVE('',#509,#285,#1008,.T.);
#1008 = LINE('',#1009,#1010);
#1009 = CARTESIAN_POINT('',(-38.4,-7.4,16.));
#1010 = VECTOR('',#1011,1.);
#1011 = DIRECTION('',(-0.,-0.,-1.));
#1012 = PLANE('',#1013);
#1013 = AXIS2_PLACEMENT_3D('',#1014,#1015,#1016);
#1014 = CARTESIAN_POINT('',(-38.4,12.4,16.));
#1015 = DIRECTION('',(-1.,0.,0.));
#1016 = DIRECTION('',(0.,-1.,0.));
#1017 = ADVANCED_FACE('',(#1018),#1029,.F.);
#1018 = FACE_BOUND('',#1019,.F.);
#1019 = EDGE_LOOP('',(#1020,#1021,#1027,#1028));
#1020 = ORIENTED_EDGE('',*,*,#516,.F.);
#1021 = ORIENTED_EDGE('',*,*,#1022,.T.);
#1022 = EDGE_CURVE('',#517,#293,#1023,.T.);
#1023 = LINE('',#1024,#1025);
#1024 = CARTESIAN_POINT('',(38.4,12.4,16.));
#1025 = VECTOR('',#1026,1.);
#1026 = DIRECTION('',(-0.,-0.,-1.));
#1027 = ORIENTED_EDGE('',*,*,#292,.T.);
#1028 = ORIENTED_EDGE('',*,*,#1000,.F.);
#1029 = PLANE('',#1030);
#1030 = AXIS2_PLACEMENT_3D('',#1031,#1032,#1033);
#1031 = CARTESIAN_POINT('',(38.4,12.4,16.));
#1032 = DIRECTION('',(0.,1.,0.));
#1033 = DIRECTION('',(-1.,0.,0.));
#1034 = ADVANCED_FACE('',(#1035),#1046,.F.);
#1035 = FACE_BOUND('',#1036,.F.);
#1036 = EDGE_LOOP('',(#1037,#1038,#1039,#1040));
#1037 = ORIENTED_EDGE('',*,*,#532,.F.);
#1038 = ORIENTED_EDGE('',*,*,#1007,.T.);
#1039 = ORIENTED_EDGE('',*,*,#308,.T.);
#1040 = ORIENTED_EDGE('',*,*,#1041,.F.);
#1041 = EDGE_CURVE('',#525,#301,#1042,.T.);
#1042 = LINE('',#1043,#1044);
#1043 = CARTESIAN_POINT('',(38.4,-7.4,16.));
#1044 = VECTOR('',#1045,1.);
#1045 = DIRECTION('',(-0.,-0.,-1.));
#1046 = PLANE('',#1047);
#1047 = AXIS2_PLACEMENT_3D('',#1048,#1049,#1050);
#1048 = CARTESIAN_POINT('',(-38.4,-7.4,16.));
#1049 = DIRECTION('',(0.,-1.,0.));
#1050 = DIRECTION('',(1.,0.,0.));
#1051 = ADVANCED_FACE('',(#1052),#1058,.F.);
#1052 = FACE_BOUND('',#1053,.F.);
#1053 = EDGE_LOOP('',(#1054,#1055,#1056,#1057));
#1054 = ORIENTED_EDGE('',*,*,#524,.F.);
#1055 = ORIENTED_EDGE('',*,*,#1041,.T.);
#1056 = ORIENTED_EDGE('',*,*,#300,.T.);
#1057 = ORIENTED_EDGE('',*,*,#1022,.F.);
#1058 = PLANE('',#1059);
#1059 = AXIS2_PLACEMENT_3D('',#1060,#1061,#1062);
#1060 = CARTESIAN_POINT('',(38.4,-7.4,16.));
#1061 = DIRECTION('',(1.,0.,0.));
#1062 = DIRECTION('',(0.,1.,0.));
#1063 = ADVANCED_FACE('',(#1064),#1080,.F.);
#1064 = FACE_BOUND('',#1065,.F.);
#1065 = EDGE_LOOP('',(#1066,#1067,#1073,#1074));
#1066 = ORIENTED_EDGE('',*,*,#540,.F.);
#1067 = ORIENTED_EDGE('',*,*,#1068,.T.);
#1068 = EDGE_CURVE('',#541,#317,#1069,.T.);
#1069 = LINE('',#1070,#1071);
#1070 = CARTESIAN_POINT('',(3.3,18.35,16.));
#1071 = VECTOR('',#1072,1.);
#1072 = DIRECTION('',(-0.,-0.,-1.));
#1073 = ORIENTED_EDGE('',*,*,#316,.T.);
#1074 = ORIENTED_EDGE('',*,*,#1075,.F.);
#1075 = EDGE_CURVE('',#543,#319,#1076,.T.);
#1076 = LINE('',#1077,#1078);
#1077 = CARTESIAN_POINT('',(15.3,18.35,16.));
#1078 = VECTOR('',#1079,1.);
#1079 = DIRECTION('',(-0.,-0.,-1.));
#1080 = PLANE('',#1081);
#1081 = AXIS2_PLACEMENT_3D('',#1082,#1083,#1084);
#1082 = CARTESIAN_POINT('',(3.3,18.35,16.));
#1083 = DIRECTION('',(0.,-1.,0.));
#1084 = DIRECTION('',(1.,0.,0.));
#1085 = ADVANCED_FACE('',(#1086),#1097,.F.);
#1086 = FACE_BOUND('',#1087,.F.);
#1087 = EDGE_LOOP('',(#1088,#1089,#1090,#1091));
#1088 = ORIENTED_EDGE('',*,*,#566,.F.);
#1089 = ORIENTED_EDGE('',*,*,#1075,.T.);
#1090 = ORIENTED_EDGE('',*,*,#342,.T.);
#1091 = ORIENTED_EDGE('',*,*,#1092,.F.);
#1092 = EDGE_CURVE('',#559,#335,#1093,.T.);
#1093 = LINE('',#1094,#1095);
#1094 = CARTESIAN_POINT('',(15.3,30.35,16.));
#1095 = VECTOR('',#1096,1.);
#1096 = DIRECTION('',(-0.,-0.,-1.));
#1097 = PLANE('',#1098);
#1098 = AXIS2_PLACEMENT_3D('',#1099,#1100,#1101);
#1099 = CARTESIAN_POINT('',(15.3,18.35,16.));
#1100 = DIRECTION('',(1.,0.,0.));
#1101 = DIRECTION('',(0.,1.,0.));
#1102 = ADVANCED_FACE('',(#1103),#1114,.F.);
#1103 = FACE_BOUND('',#1104,.F.);
#1104 = EDGE_LOOP('',(#1105,#1106,#1107,#1108));
#1105 = ORIENTED_EDGE('',*,*,#558,.F.);
#1106 = ORIENTED_EDGE('',*,*,#1092,.T.);
#1107 = ORIENTED_EDGE('',*,*,#334,.T.);
#1108 = ORIENTED_EDGE('',*,*,#1109,.F.);
#1109 = EDGE_CURVE('',#551,#327,#1110,.T.);
#1110 = LINE('',#1111,#1112);
#1111 = CARTESIAN_POINT('',(3.3,30.35,16.));
#1112 = VECTOR('',#1113,1.);
#1113 = DIRECTION('',(-0.,-0.,-1.));
#1114 = PLANE('',#1115);
#1115 = AXIS2_PLACEMENT_3D('',#1116,#1117,#1118);
#1116 = CARTESIAN_POINT('',(15.3,30.35,16.));
#1117 = DIRECTION('',(0.,1.,0.));
#1118 = DIRECTION('',(-1.,0.,0.));
#1119 = ADVANCED_FACE('',(#1120),#1126,.F.);
#1120 = FACE_BOUND('',#1121,.F.);
#1121 = EDGE_LOOP('',(#1122,#1123,#1124,#1125));
#1122 = ORIENTED_EDGE('',*,*,#550,.F.);
#1123 = ORIENTED_EDGE('',*,*,#1109,.T.);
#1124 = ORIENTED_EDGE('',*,*,#326,.T.);
#1125 = ORIENTED_EDGE('',*,*,#1068,.F.);
#1126 = PLANE('',#1127);
#1127 = AXIS2_PLACEMENT_3D('',#1128,#1129,#1130);
#1128 = CARTESIAN_POINT('',(3.3,30.35,16.));
#1129 = DIRECTION('',(-1.,0.,0.));
#1130 = DIRECTION('',(0.,-1.,0.));
#1131 = ADVANCED_FACE('',(#1132),#1143,.F.);
#1132 = FACE_BOUND('',#1133,.T.);
#1133 = EDGE_LOOP('',(#1134,#1135,#1136,#1142));
#1134 = ORIENTED_EDGE('',*,*,#696,.F.);
#1135 = ORIENTED_EDGE('',*,*,#430,.T.);
#1136 = ORIENTED_EDGE('',*,*,#1137,.T.);
#1137 = EDGE_CURVE('',#423,#718,#1138,.T.);
#1138 = LINE('',#1139,#1140);
#1139 = CARTESIAN_POINT('',(-42.23666666666,35.606666666667,
    12.673333333333));
#1140 = VECTOR('',#1141,1.);
#1141 = DIRECTION('',(-0.57735026919,0.57735026919,-0.57735026919));
#1142 = ORIENTED_EDGE('',*,*,#725,.F.);
#1143 = PLANE('',#1144);
#1144 = AXIS2_PLACEMENT_3D('',#1145,#1146,#1147);
#1145 = CARTESIAN_POINT('',(-49.9,33.775,14.505));
#1146 = DIRECTION('',(-3.013496354936E-17,-0.707106781187,
    -0.707106781187));
#1147 = DIRECTION('',(-1.,2.130863707656E-17,2.130863707656E-17));
#1148 = ADVANCED_FACE('',(#1149),#1155,.T.);
#1149 = FACE_BOUND('',#1150,.F.);
#1150 = EDGE_LOOP('',(#1151,#1152,#1153,#1154));
#1151 = ORIENTED_EDGE('',*,*,#703,.F.);
#1152 = ORIENTED_EDGE('',*,*,#366,.T.);
#1153 = ORIENTED_EDGE('',*,*,#604,.T.);
#1154 = ORIENTED_EDGE('',*,*,#663,.F.);
#1155 = PLANE('',#1156);
#1156 = AXIS2_PLACEMENT_3D('',#1157,#1158,#1159);
#1157 = CARTESIAN_POINT('',(-49.9,-33.775,14.505));
#1158 = DIRECTION('',(3.013496354936E-17,-0.707106781187,0.707106781187)
  );
#1159 = DIRECTION('',(-1.,-2.130863707656E-17,2.130863707656E-17));
#1160 = ADVANCED_FACE('',(#1161),#1167,.F.);
#1161 = FACE_BOUND('',#1162,.T.);
#1162 = EDGE_LOOP('',(#1163,#1164,#1165,#1166));
#1163 = ORIENTED_EDGE('',*,*,#1137,.F.);
#1164 = ORIENTED_EDGE('',*,*,#422,.T.);
#1165 = ORIENTED_EDGE('',*,*,#782,.T.);
#1166 = ORIENTED_EDGE('',*,*,#749,.F.);
#1167 = PLANE('',#1168);
#1168 = AXIS2_PLACEMENT_3D('',#1169,#1170,#1171);
#1169 = CARTESIAN_POINT('',(-40.405,35.27,14.505));
#1170 = DIRECTION('',(0.707106781187,-3.013496354936E-17,-0.707106781187
    ));
#1171 = DIRECTION('',(-2.130863707656E-17,-1.,2.130863707656E-17));
#1172 = ADVANCED_FACE('',(#1173),#1184,.T.);
#1173 = FACE_BOUND('',#1174,.F.);
#1174 = EDGE_LOOP('',(#1175,#1181,#1182,#1183));
#1175 = ORIENTED_EDGE('',*,*,#1176,.F.);
#1176 = EDGE_CURVE('',#399,#798,#1177,.T.);
#1177 = LINE('',#1178,#1179);
#1178 = CARTESIAN_POINT('',(42.236666666667,35.606666666667,
    12.673333333333));
#1179 = VECTOR('',#1180,1.);
#1180 = DIRECTION('',(0.57735026919,0.57735026919,-0.57735026919));
#1181 = ORIENTED_EDGE('',*,*,#406,.T.);
#1182 = ORIENTED_EDGE('',*,*,#775,.T.);
#1183 = ORIENTED_EDGE('',*,*,#797,.F.);
#1184 = PLANE('',#1185);
#1185 = AXIS2_PLACEMENT_3D('',#1186,#1187,#1188);
#1186 = CARTESIAN_POINT('',(40.405,35.27,14.505));
#1187 = DIRECTION('',(0.707106781187,3.013496354936E-17,0.707106781187)
  );
#1188 = DIRECTION('',(2.130863707656E-17,-1.,2.130863707656E-17));
#1189 = ADVANCED_FACE('',(#1190),#1196,.T.);
#1190 = FACE_BOUND('',#1191,.F.);
#1191 = EDGE_LOOP('',(#1192,#1193,#1194,#1195));
#1192 = ORIENTED_EDGE('',*,*,#849,.F.);
#1193 = ORIENTED_EDGE('',*,*,#398,.T.);
#1194 = ORIENTED_EDGE('',*,*,#1176,.T.);
#1195 = ORIENTED_EDGE('',*,*,#821,.F.);
#1196 = PLANE('',#1197);
#1197 = AXIS2_PLACEMENT_3D('',#1198,#1199,#1200);
#1198 = CARTESIAN_POINT('',(49.9,33.775,14.505));
#1199 = DIRECTION('',(-3.013496354936E-17,0.707106781187,0.707106781187)
  );
#1200 = DIRECTION('',(1.,2.130863707656E-17,2.130863707656E-17));
#1201 = ( GEOMETRIC_REPRESENTATION_CONTEXT(3) 
GLOBAL_UNCERTAINTY_ASSIGNED_CONTEXT((#1205)) 
GLOBAL_UNIT_ASSIGNED_CONTEXT((#1202,#1203,#1204)) REPRESENTATION_CONTEXT
('Context #1','3D Context with UNIT and UNCERTAINTY') );
#1202 = ( LENGTH_UNIT() NAMED_UNIT(*) SI_UNIT(.MILLI.,.METRE.) );
#1203 = ( NAMED_UNIT(*) PLANE_ANGLE_UNIT() SI_UNIT($,.RADIAN.) );
#1204 = ( NAMED_UNIT(*) SI_UNIT($,.STERADIAN.) SOLID_ANGLE_UNIT() );
#1205 = UNCERTAINTY_MEASURE_WITH_UNIT(LENGTH_MEASURE(2.E-05),#1202,
  'distance_accuracy_value','confusion accuracy');
#1206 = PRODUCT_RELATED_PRODUCT_CATEGORY('part',$,(#7));
#1207 = MECHANICAL_DESIGN_GEOMETRIC_PRESENTATION_REPRESENTATION('',(
    #1208),#1201);
#1208 = STYLED_ITEM('color',(#1209),#15);
#1209 = PRESENTATION_STYLE_ASSIGNMENT((#1210,#1216));
#1210 = SURFACE_STYLE_USAGE(.BOTH.,#1211);
#1211 = SURFACE_SIDE_STYLE('',(#1212));
#1212 = SURFACE_STYLE_FILL_AREA(#1213);
#1213 = FILL_AREA_STYLE('',(#1214));
#1214 = FILL_AREA_STYLE_COLOUR('',#1215);
#1215 = COLOUR_RGB('',0.447058818107,0.474509808674,0.501960817233);
#1216 = CURVE_STYLE('',#1217,POSITIVE_LENGTH_MEASURE(0.1),#1218);
#1217 = DRAUGHTING_PRE_DEFINED_CURVE_FONT('continuous');
#1218 = COLOUR_RGB('',9.803921802644E-02,9.803921802644E-02,
  9.803921802644E-02);
ENDSEC;
END-ISO-10303-21;
